<?xml version="1.0" encoding="ISO-8859-1" standalone="no"?>
<!DOCTYPE svg PUBLIC "-//W3C//DTD SVG 20010904//EN"
"http://www.w3.org/TR/2001/REC-SVG-20010904/DTD/svg10.dtd">
<svg xmlns="http://www.w3.org/2000/svg" width="81.2356mm" height="61.4704mm" xmlns:xlink="http://www.w3.org/1999/xlink">
<title>CncControl SerialEmulatorSVG output</title>
<desc>Reconstructed move commands</desc>
<defs>
<script type="text/javascript">
<![CDATA[
	function toggleOrigPath() {
		var elem, attr;
		elem = document.getElementById('Use_Orig_1');
		attr = elem.getAttribute('xlink:href');
		if ( attr.indexOf('#') == 0 )  elem.setAttribute('xlink:href', 'Orig_1');
		else                           elem.setAttribute('xlink:href', '#Orig_1');
		elem = document.getElementById('Use_Orig_2');
		attr = elem.getAttribute('xlink:href');
		if ( attr.indexOf('#') == 0 )  elem.setAttribute('xlink:href', 'Orig_2');
		else                           elem.setAttribute('xlink:href', '#Orig_2');
		elem = document.getElementById('Use_Orig_3');
		attr = elem.getAttribute('xlink:href');
		if ( attr.indexOf('#') == 0 )  elem.setAttribute('xlink:href', 'Orig_3');
		else                           elem.setAttribute('xlink:href', '#Orig_3');
		elem = document.getElementById('Use_Orig_4');
		attr = elem.getAttribute('xlink:href');
		if ( attr.indexOf('#') == 0 )  elem.setAttribute('xlink:href', 'Orig_4');
		else                           elem.setAttribute('xlink:href', '#Orig_4');
		elem = document.getElementById('Use_Orig_5');
		attr = elem.getAttribute('xlink:href');
		if ( attr.indexOf('#') == 0 )  elem.setAttribute('xlink:href', 'Orig_5');
		else                           elem.setAttribute('xlink:href', '#Orig_5');
		elem = document.getElementById('Use_Orig_6');
		attr = elem.getAttribute('xlink:href');
		if ( attr.indexOf('#') == 0 )  elem.setAttribute('xlink:href', 'Orig_6');
		else                           elem.setAttribute('xlink:href', '#Orig_6');
	}
]]>
</script>
<symbol id="Path_1_Crossing_1">
<path class="CncPath_1" d="M 194.031 83.8081 l -34.0689 -22.5886 -23.1732 33.1654 11.5335 -38.4803 -39.5965 -11.1614 41.2441 -1.22244 -1.32874 -40.0748 13.9252 37.7362 38.7992 -13.6063 -32.6339 24.502 25.2992 31.624" style="stroke:black; fill:none; stroke-width:0.5px; stroke-dasharray:2,1; "/>
</symbol>
<symbol id="Orig_1">
<path class="SvgPath_1" d="M 117.12661,113.48921 70.37984,81.635171 38.625557,128.44976 54.475002,74.147501 0.13906677,58.413887 56.681335,56.707283 54.854163,0.16878425 73.949761,53.416307 127.15644,34.207207 82.415903,68.822589 Z" transform="matrix(0.72911573,0,0,0.70838571,108.63168,3.4139279) " style="stroke:red; fill:none; stroke-width:0.5px; "/>
</symbol>
<symbol id="Path_2_Crossing_1">
<path class="CncPath_2" d="M 33.482 90.0842 l 55.8602 -22.9606 39.065 45.9213 -31.7303 51.3425 -58.6772 -14.1909 -4.57087 -60.1122" style="stroke:black; fill:none; stroke-width:0.5px; stroke-dasharray:2,1; "/>
</symbol>
<symbol id="Orig_2">
<path class="SvgPath_2" d="M 14.08769,169.26367 0.55505632,91.800057 70.045515,54.992185 126.52561,109.70728 91.941776,180.33094 Z" transform="matrix(0.16504006,0.74839096,-0.74989019,0.16537069,158.08609,51.549829) " style="stroke:red; fill:none; stroke-width:0.5px; "/>
</symbol>
<symbol id="Path_3_Crossing_1">
<path class="CncPath_3" d="M 31.4081 187.083 l 0.478346 -3.98622 1.38189 -3.66732 2.17913 -3.08268 2.81693 -2.23228 3.24213 -1.16929 3.34843 -0.0531496 3.24213 1.06299 2.87008 2.12598 2.28543 2.97638 1.48819 3.61417 0.584646 3.98622 -0.478346 3.98622 -1.38189 3.66732 -2.17913 3.08268 -2.81693 2.23228 -3.24213 1.16929 -3.34843 0.0531496 -3.24213 -1.06299 -2.87008 -2.12598 -2.28543 -2.97638 -1.48819 -3.61417 -0.584646 -3.98622" style="stroke:black; fill:none; stroke-width:0.5px; stroke-dasharray:2,1; "/>
</symbol>
<symbol id="Orig_3">
<path class="SvgPath_3" d="M 31.4081,187.08325 a 11.948747,14.338496 0 0 1 23.8975,0 a 11.948747,14.338496 0 0 1 -23.8975,0" style="stroke:red; fill:none; stroke-width:0.5px; "/>
</symbol>
<symbol id="Path_4_Crossing_1">
<path class="CncPath_4" d="M 182.645 54.1108 l 2.01969 -3.45472 5.84646 -3.18898 9.24803 -2.65748 11.9055 -1.91339 13.6063 -1.00984 14.1909 -0.0531496 13.7126 0.903543 12.1181 1.80709 9.56693 2.60433 6.27165 3.13583 2.49803 3.45472 -2.01969 3.45472 -5.84646 3.18898 -9.24803 2.65748 -11.9055 1.91339 -13.6063 1.00984 -14.1909 0.0531496 -13.7126 -0.903543 -12.1181 -1.80709 -9.56693 -2.60433 -6.27165 -3.13583 -2.49803 -3.45472" style="stroke:black; fill:none; stroke-width:0.5px; stroke-dasharray:2,1; "/>
</symbol>
<symbol id="Orig_4">
<path class="SvgPath_4" d="M 182.645,54.11076 a 50.526131,12.460836 0 0 1 101.052,0 a 50.526131,12.460836 0 0 1 -101.052,0" style="stroke:red; fill:none; stroke-width:0.5px; "/>
</symbol>
<symbol id="Path_5_Crossing_1">
<path class="CncPath_5" d="M 31.663 9.83305 l 4.30512 0.850394 4.14567 3.13583 3.66732 5.15551 2.92323 6.75 1.91339 7.86614 0.744094 8.34449 -0.425197 8.13189 -1.64764 7.2815 -2.65748 5.89961 -3.50787 3.98622 -4.09252 1.80709 -4.30512 -0.850394 -4.14567 -3.13583 -3.66732 -5.15551 -2.92323 -6.75 -1.91339 -7.86614 -0.744094 -8.34449 0.425197 -8.13189 1.64764 -7.2815 2.65748 -5.89961 3.50787 -3.98622 4.09252 -1.80709" style="stroke:black; fill:none; stroke-width:0.5px; stroke-dasharray:2,1; "/>
</symbol>
<symbol id="Orig_5">
<path class="SvgPath_5" d="M 12.4386,-30.733019 a 29.701172,15.191978 0 0 1 59.4023,0 a 29.701172,15.191978 0 0 1 -59.4023,0" transform="matrix(0.08337121,0.99651856,-0.99651856,0.08337121,0,0) " style="stroke:red; fill:none; stroke-width:0.5px; "/>
</symbol>
<symbol id="Path_6_Crossing_1">
<path class="CncPath_6" d="M 190.313 94.768 l -49.8543 51.9272 55.3819 53.2028 49.8543 -51.9272 -55.3819 -53.2028" style="stroke:black; fill:none; stroke-width:0.5px; stroke-dasharray:2,1; "/>
</symbol>
<symbol id="Orig_6">
<path class="SvgPath_6" d="M 202.89774 -63.501778 l 76.75972 0 0 71.980217 -76.75972 0 z" transform="matrix(0.72115362,0.69277518,-0.69277518,0.72115362,0,0) " style="stroke:red; fill:none; stroke-width:0.5px; "/>
</symbol>
</defs>
<use xlink:href="#Path_1_Crossing_1"/>
<use xlink:href="#Path_2_Crossing_1"/>
<use xlink:href="#Path_3_Crossing_1"/>
<use xlink:href="#Path_4_Crossing_1"/>
<use xlink:href="#Path_5_Crossing_1"/>
<use xlink:href="#Path_6_Crossing_1"/>
<use id="Use_Orig_1" xlink:href="#Orig_1"/>
<use id="Use_Orig_2" xlink:href="#Orig_2"/>
<use id="Use_Orig_3" xlink:href="#Orig_3"/>
<use id="Use_Orig_4" xlink:href="#Orig_4"/>
<use id="Use_Orig_5" xlink:href="#Orig_5"/>
<use id="Use_Orig_6" xlink:href="#Orig_6"/>
</svg>
