<?xml version="1.0" encoding="ISO-8859-1" standalone="no"?>
<!DOCTYPE svg PUBLIC "-//W3C//DTD SVG 20010904//EN"
"http://www.w3.org/TR/2001/REC-SVG-20010904/DTD/svg10.dtd">
<svg xmlns="http://www.w3.org/2000/svg" width="100mm" height="100mm" xmlns:xlink="http://www.w3.org/1999/xlink">
<title>CNC Woodworking standard template</title>
<desc>....</desc>
	<!--samples start /-->
		<!--line x1="10" y1="0" x2="20" y2="0" stroke="blue" stroke-width="0.5"/-->
		<!--rect x="5" y="5" width="10" height="10" fill="none" stroke="blue" stroke-width="0.5"/-->
		<!--rect x="10" y="10" rx="5" ry="5" width="30" height="30" fill="none" stroke="blue" stroke-width="0.5"/-->
		<!--polyline fill="none" stroke="blue" stroke-width="0.5" points="10,10 15,15 20,10 25,15"/-->
		<!--polygon fill="none" stroke="blue" stroke-width="0.5" points="10 10 15 15 20 10"/-->
		<!--circle cx="50" cy="40" r="20" fill="none" stroke="blue" stroke-width="0.5"/-->
		<!--ellipse cx="50" cy="50" rx="40" ry="30" fill="none" stroke="blue" stroke-width="0.5"/-->
		<!--path d="M 20.5 20.5 l 10 0 0 10 -10 0z " stroke="black" fill="none" stroke-width="0.5"/-->
		<!--path d="M10,20 C10,10 25,10 25,20 S40,30 40,20" stroke="black" fill="none" stroke-width="0.5"/-->
		<!--path d="M40,40 Q40,5 60,30 T100,30"  stroke="black" fill="none" stroke-width="0.5" /-->
		<!--path d="M 10 20 a 5 5 0 1 0 10 0 a 5 5 0 1 0 -10 0 " fill="none" stroke="blue" stroke-width="0.5"/-->
		<!--path d="M 5,5" stroke="black" fill="none" stroke-width="0.5"/-->
	<!--samples end /-->

</svg>
