<?xml version="1.0" encoding="UTF-8" standalone="no"?>
<svg xmlns:dc="http://purl.org/dc/elements/1.1/" xmlns:cc="http://creativecommons.org/ns#" xmlns:rdf="http://www.w3.org/1999/02/22-rdf-syntax-ns#" xmlns:svg="http://www.w3.org/2000/svg" xmlns="http://www.w3.org/2000/svg" xmlns:sodipodi="http://sodipodi.sourceforge.net/DTD/sodipodi-0.dtd" xmlns:inkscape="http://www.inkscape.org/namespaces/inkscape" width="24" height="24" fill-rule="evenodd" clip-rule="evenodd" version="1.1" id="svg4" sodipodi:docname="Heartbeat.svg" inkscape:version="1.0.1 (3bc2e813f5, 2020-09-07)">
  <metadata id="metadata10">
    <rdf:RDF>
      <cc:Work rdf:about="">
        <dc:format>image/svg+xml</dc:format>
        <dc:type rdf:resource="http://purl.org/dc/dcmitype/StillImage" />
        <dc:title></dc:title>
      </cc:Work>
    </rdf:RDF>
  </metadata>
  <defs id="defs8" />
  <sodipodi:namedview pagecolor="#ffffff" bordercolor="#666666" borderopacity="1" objecttolerance="10" gridtolerance="10" guidetolerance="10" inkscape:pageopacity="0" inkscape:pageshadow="2" inkscape:window-width="2560" inkscape:window-height="1387" id="namedview6" showgrid="false" inkscape:zoom="43.688874" inkscape:cx="15.543647" inkscape:cy="-1.1458208" inkscape:window-x="1592" inkscape:window-y="0" inkscape:window-maximized="1" inkscape:current-layer="svg4" />
  <path style="fill:#af0000;fill-opacity:1;stroke-width:0.684669" d="m 9.0351562,11.492188 c -0.1537499,-0.012 -0.3011718,0.0731 -0.3886718,0.224609 L 7.4707031,13.75 H 6.7070312 C 6.4907813,13.301479 6.0875,13 5.625,13 c -0.69,0 -1.25,0.671962 -1.25,1.5 0,0.828039 0.56,1.5 1.25,1.5 0.4625,0 0.8657813,-0.301479 1.0820312,-0.75 h 1.2207032 c 0.1425,0 0.2755468,-0.08315 0.3574218,-0.222656 L 8.9023438,13.972656 10.3125,17.390625 c 0.07125,0.171758 0.215625,0.285469 0.375,0.292969 0.16,0.0083 0.310078,-0.08965 0.392578,-0.253906 L 12.179688,15.25 H 15 v -1.5 h -3.296875 c -0.15875,0 -0.303359,0.10182 -0.380859,0.267578 l -0.507813,1.087891 -1.4199218,-3.328125 c -0.07,-0.164258 -0.20625,-0.273156 -0.359375,-0.285156 z" id="path859" />
  <path style="fill:#ea5700;fill-opacity:1;stroke-width:0.684669;stroke:#ea5700;stroke-opacity:1" d="M 3.546875,7 C 1.539375,7.0525025 0,8.7246962 0,11.195312 0,14.34621 3.0225,17.470085 6.875,21.998047 7.828125,20.876744 8.7348438,19.839827 9.5585938,18.863281 L 8.953125,17.470703 C 8.30375,18.246989 7.6,19.057054 6.875,19.902344 3.96625,16.503934 1.25,13.523266 1.25,11.191406 1.25,9.390572 2.4429688,8.3546492 3.7617188,8.5039062 5.4617188,8.6959152 6.545625,11.22772 6.875,11.875 7.1625,11.294473 8.3107031,8.6969774 9.9863281,8.5117188 11.365078,8.3594615 12.501953,9.4468247 12.501953,11.191406 c 0,0.339766 -0.05719,0.693327 -0.164062,1.058594 h 1.302734 C 13.711875,11.899733 13.75,11.551141 13.75,11.203125 13.75,8.5930025 12.073203,7.0058594 10.158203,7.0058594 8.8413281,7.0058594 7.610625,7.7458219 6.875,9.2128906 6.12375,7.7165705 4.89875,6.9932497 3.546875,7 Z" id="path2" inkscape:export-xdpi="91" inkscape:export-ydpi="91" />
  <g id="g899" inkscape:export-xdpi="91" inkscape:export-ydpi="91">
    <path style="fill:#ea5700;fill-opacity:1;stroke-width:0.684669" d="m 23.137128,14.591836 c -0.21625,0.448521 -0.62,0.750035 -1.0825,0.750035 -0.69,0 -1.25,-0.672032 -1.25,-1.500071 0,-0.828038 0.56,-1.50007 1.25,-1.50007 0.4625,0 0.86625,0.301514 1.0825,0.750035 h 0.76375 l 1.175,-2.032595 c 0.0875,-0.151507 0.235,-0.236261 0.38875,-0.224261 0.153125,0.012 0.29,0.120756 0.36,0.285014 l 1.41875,3.327906 0.508125,-1.087551 c 0.0775,-0.165758 0.223125,-0.268513 0.381875,-0.268513 h 3.29625 v 1.500071 h -2.820625 l -1.099375,2.181103 c -0.0825,0.164258 -0.233125,0.261012 -0.393125,0.252762 -0.159375,-0.0075 -0.3025,-0.120006 -0.37375,-0.291764 l -1.41,-3.419411 -0.618125,1.054549 c -0.08188,0.139507 -0.215625,0.222761 -0.358125,0.222761 z" id="path863" />
    <path style="fill:#ea5700;fill-opacity:1;stroke-width:0.684669;stroke:#af0000;stroke-opacity:1" d="m 30.070878,11.591695 h -1.30375 c 0.106875,-0.365267 0.16375,-0.717784 0.16375,-1.05755 0,-1.7445813 -1.13625,-2.8321323 -2.515,-2.6798751 -1.675625,0.1852586 -2.82375,2.7826301 -3.11125,3.3631571 -0.329375,-0.64728 -1.413125,-3.1786485 -3.113125,-3.3706575 -1.31875,-0.149257 -2.511875,0.8857915 -2.511875,2.6866255 0,2.33186 2.716875,5.31325 5.625625,8.71166 0.725,-0.84529 1.428125,-1.656078 2.0775,-2.432364 l 0.60625,1.392815 c -0.82375,0.976546 -1.730625,2.014594 -2.68375,3.135897 -3.8525,-4.527962 -6.875625,-7.65186 -6.875625,-10.802757 0,-2.4706161 1.53875,-4.1446946 3.54625,-4.1971971 1.351875,-0.00675 2.578125,0.7177837 3.329375,2.2141038 0.735625,-1.4670687 1.96625,-2.2066034 3.283125,-2.2066034 1.915,0 3.59125,1.5863244 3.59125,4.1964467 0,0.348016 -0.0375,0.696032 -0.10875,1.046299 z" id="path2-7" />
  </g>
  <g id="g895" inkscape:export-xdpi="91" inkscape:export-ydpi="91" style="fill-rule:nonzero;fill:#e0e0e1;fill-opacity:1;stroke:#e0e0e0;stroke-opacity:1">
    <path style="fill:#e0e0e1;fill-opacity:1;stroke-width:0.684669;fill-rule:nonzero;stroke:#e0e0e0;stroke-opacity:1" d="m 17.964227,25.979544 c -0.15375,-0.012 -0.301172,0.0731 -0.388672,0.224609 l -1.175781,2.033203 h -0.763672 c -0.21625,-0.448521 -0.619531,-0.75 -1.082031,-0.75 -0.69,0 -1.25,0.671962 -1.25,1.5 0,0.828039 0.56,1.5 1.25,1.5 0.4625,0 0.865781,-0.301479 1.082031,-0.75 h 1.220703 c 0.1425,0 0.275547,-0.08315 0.357422,-0.222656 l 0.617188,-1.054688 1.410156,3.417968 c 0.07125,0.171758 0.215625,0.285469 0.375,0.292969 0.16,0.0083 0.310078,-0.08965 0.392578,-0.253906 l 1.09961,-2.179687 h 2.820312 v -1.5 h -3.296875 c -0.15875,0 -0.303359,0.10182 -0.380859,0.267578 L 19.743524,29.592825 18.323602,26.2647 c -0.07,-0.164258 -0.20625,-0.273156 -0.359375,-0.285156 z" id="path859-5" />
    <path style="fill:#e0e0e1;fill-opacity:1;stroke:#e0e0e0;stroke-width:0.684669;stroke-opacity:1;fill-rule:nonzero" d="m 12.475946,21.487356 c -2.0075,0.0525 -3.5468752,1.724696 -3.5468752,4.195312 0,3.150898 3.0225002,6.274772 6.8750002,10.802734 0.953125,-1.121303 1.859844,-2.15822 2.683594,-3.134766 l -0.605469,-1.392578 c -0.649375,0.776286 -1.353125,1.586351 -2.078125,2.431641 -2.90875,-3.398409 -5.625,-6.379077 -5.625,-8.710937 0,-1.800834 1.192969,-2.836757 2.511719,-2.6875 1.7,0.192009 2.783906,2.723814 3.113281,3.371094 0.2875,-0.580527 1.435703,-3.178023 3.111328,-3.363282 1.37875,-0.152257 2.515625,0.935106 2.515625,2.679688 0,0.339766 -0.05719,0.693327 -0.164062,1.058594 h 1.302734 c 0.07125,-0.350267 0.109375,-0.698859 0.109375,-1.046875 0,-2.610123 -1.676797,-4.197266 -3.591797,-4.197266 -1.316875,0 -2.547578,0.739962 -3.283203,2.207031 -0.75125,-1.49632 -1.97625,-2.219641 -3.328125,-2.21289 z" id="path2-6" />
  </g>
</svg>
