<?xml version="1.0" encoding="UTF-8" standalone="no"?>
<svg
   xmlns:dc="http://purl.org/dc/elements/1.1/"
   xmlns:cc="http://creativecommons.org/ns#"
   xmlns:rdf="http://www.w3.org/1999/02/22-rdf-syntax-ns#"
   xmlns:svg="http://www.w3.org/2000/svg"
   xmlns="http://www.w3.org/2000/svg"
   version="1.1"
   id="svg2"
   viewBox="0 0 265 265"
   height="71.891762mm"
   width="74.622421mm">
  <defs
     id="defs4" />
  <metadata
     id="metadata7">
    <rdf:RDF>
      <cc:Work
         rdf:about="">
        <dc:format>image/svg+xml</dc:format>
        <dc:type
           rdf:resource="http://purl.org/dc/dcmitype/StillImage" />
        <dc:title></dc:title>
      </cc:Work>
    </rdf:RDF>
  </metadata>
  <g
     id="layer1">

	<CncParameterBlock SpeedRapid="R+3500" SpeedWork="W+900" SpeedSpindle="S+15000"/>
	<CncParameterBlock Spindle="On"/>

    <path
       id="path7315"
       d="m 147.25654,137.19167 a 15.004343,15.004343 0 0 1 -15.00434,15.00434 15.004343,15.004343 0 0 1 -15.00434,-15.00434 15.004343,15.004343 0 0 1 15.00434,-15.00435 15.004343,15.004343 0 0 1 15.00434,15.00435 z"
       style="fill:none;stroke:#0000ff;stroke-width:0.42345589" />



	<path
       id="path7297"
       d="m 244.21783,127.94783 2.7973,-0.217 7.45871,1.17691 10.36742,4.1789 0,7.0002 -10.36742,4.1789 -7.45871,1.17691 -2.7973,-0.217 -1.47353,10.78235 2.76028,0.48785 6.88836,2.99651 8.89143,6.62144 -1.88072,6.76167 -11.13689,1.45158 -7.52076,-0.72289 -2.64368,-0.90706 -4.32018,10.04755 2.53515,1.15945 5.8486,4.61189 6.80949,8.61275 -3.63327,6.06235 -11.1474,-1.37467 -7.07029,-2.57343 -2.30989,-1.53531 -6.87243,8.62803 2.13727,1.75204 4.41024,5.91299 4.26351,10.0171 -5.13822,4.94988 -10.39824,-4.10723 -6.13798,-4.24859 -1.8187,-2.05893 -8.95632,6.62053 1.59373,2.22522 2.67135,6.81113 1.42697,10.7388 -6.29302,3.5001 -8.94044,-6.5599 -4.78738,-5.63422 -1.20356,-2.44223 -10.42985,4.16184 0.94157,2.54677 0.7504,7.24509 -1.50681,10.72868 -7.01895,1.81178 -6.87338,-8.56551 -3.11052,-6.63588 -0.50641,-2.65911 -11.19261,1.41953 0.22526,2.69476 -1.22169,7.18532 -4.3379,9.98741 -7.26656,0 -4.3379,-9.98741 -1.22169,-7.18532 0.22526,-2.69476 -11.19261,-1.41953 -0.50641,2.65911 -3.11052,6.63588 -6.87338,8.56551 -7.018949,-1.81178 -1.506809,-10.72868 0.750398,-7.24509 0.941575,-2.54677 -10.42985,-4.16184 -1.203567,2.44223 -4.787372,5.63422 -8.940446,6.5599 -6.29302,-3.5001 1.426974,-10.7388 2.671346,-6.81113 1.593727,-2.22522 -8.95632,-6.62053 -1.818697,2.05893 -6.13798,4.24859 -10.398234,4.10723 -5.138224,-4.94988 4.263509,-10.0171 4.410241,-5.91299 2.13727,-1.75204 -6.872425,-8.62803 -2.309896,1.53531 -7.070283,2.57343 -11.147402,1.37467 -3.633272,-6.06235 6.809494,-8.61275 5.848592,-4.61189 2.535157,-1.15945 -4.320187,-10.04755 -2.643676,0.90706 -7.520762,0.72289 -11.1368894,-1.45158 -1.880722,-6.76167 8.8914284,-6.62144 6.888364,-2.99651 2.760281,-0.48785 -1.473534,-10.78235 -2.797296,0.217 -7.458714,-1.17691 -10.36742057,-4.1789 0,-7.0002 10.36742057,-4.1789 7.458714,-1.17691 2.797296,0.217 1.473534,-10.78235 -2.760281,-0.48785 -6.888364,-2.9965 -8.8914284,-6.62144 1.880722,-6.76168 11.1368894,-1.451576 7.520762,0.72289 2.643676,0.907066 4.320187,-10.047556 -2.535157,-1.159452 -5.848592,-4.611892 -6.809494,-8.612741 3.633272,-6.062351 11.147402,1.374669 7.070283,2.573426 2.309896,1.535311 6.872425,-8.628028 -2.13727,-1.75204 -4.410241,-5.912994 -4.263509,-10.017095 5.138224,-4.949885 10.398234,4.107233 6.13798,4.248588 1.818697,2.058927 8.95632,-6.620521 -1.593727,-2.225227 -2.671346,-6.811127 -1.426974,-10.738803 6.29302,-3.500096 8.940446,6.559897 4.787372,5.634216 1.203567,2.442232 10.42985,-4.161833 -0.941575,-2.546773 -0.750398,-7.245095 1.506809,-10.728675 7.018949,-1.811785 6.87338,8.565519 3.11052,6.635876 0.50641,2.659105 11.19261,-1.419522 -0.22526,-2.694764 1.22169,-7.18532 4.3379,-9.9874099 7.26656,0 4.3379,9.9874099 1.22169,7.18532 -0.22526,2.694764 11.19261,1.419522 0.50641,-2.659105 3.11052,-6.635876 6.87338,-8.565519 7.01895,1.811785 1.50681,10.728675 -0.7504,7.245095 -0.94157,2.546773 10.42985,4.161833 1.20356,-2.442232 4.78738,-5.634216 8.94044,-6.559897 6.29302,3.500096 -1.42697,10.738803 -2.67135,6.811127 -1.59373,2.225227 8.95632,6.620521 1.8187,-2.058927 6.13798,-4.248588 10.39824,-4.107233 5.13822,4.949885 -4.26351,10.017095 -4.41024,5.912994 -2.13727,1.75204 6.87243,8.628028 2.30989,-1.535311 7.07029,-2.573426 11.1474,-1.374669 3.63327,6.062351 -6.80949,8.612741 -5.8486,4.611892 -2.53515,1.159452 4.32018,10.047556 2.64368,-0.907066 7.52076,-0.72289 11.13689,1.451576 1.88072,6.76168 -8.89143,6.62144 -6.88836,2.9965 -2.76028,0.48785 z"
       style="fill:none;stroke:#000000;stroke-width:0.42345589" />

	<CncParameterBlock Spindle="Off"/>

  </g>
</svg>






