<?xml version="1.0" encoding="UTF-8" standalone="no"?>
<!-- Created with Inkscape (http://www.inkscape.org/) -->

<svg
   xmlns:dc="http://purl.org/dc/elements/1.1/"
   xmlns:cc="http://creativecommons.org/ns#"
   xmlns:rdf="http://www.w3.org/1999/02/22-rdf-syntax-ns#"
   xmlns:svg="http://www.w3.org/2000/svg"
   xmlns="http://www.w3.org/2000/svg"
   xmlns:sodipodi="http://sodipodi.sourceforge.net/DTD/sodipodi-0.dtd"
   xmlns:inkscape="http://www.inkscape.org/namespaces/inkscape"
   width="210mm"
   height="297mm"
   viewBox="0 0 210 297"
   version="1.1"
   id="svg8"
   inkscape:version="0.92.4 (5da689c313, 2019-01-14)"
   sodipodi:docname="NoSerialPreviewRegistered.svg">
  <defs
     id="defs2" />
  <sodipodi:namedview
     id="base"
     pagecolor="#ffffff"
     bordercolor="#666666"
     borderopacity="1.0"
     inkscape:pageopacity="0.0"
     inkscape:pageshadow="2"
     inkscape:zoom="2.9032637"
     inkscape:cx="467.67194"
     inkscape:cy="925.80216"
     inkscape:document-units="mm"
     inkscape:current-layer="layer1"
     showgrid="false"
     inkscape:window-width="2560"
     inkscape:window-height="1387"
     inkscape:window-x="2552"
     inkscape:window-y="1"
     inkscape:window-maximized="1" />
  <metadata
     id="metadata5">
    <rdf:RDF>
      <cc:Work
         rdf:about="">
        <dc:format>image/svg+xml</dc:format>
        <dc:type
           rdf:resource="http://purl.org/dc/dcmitype/StillImage" />
        <dc:title />
      </cc:Work>
    </rdf:RDF>
  </metadata>
  <g
     inkscape:label="Ebene 1"
     inkscape:groupmode="layer"
     id="layer1">
    <g
       aria-label="No preview registered"
       style="font-style:normal;font-weight:normal;font-size:10.58333302px;line-height:1.25;font-family:sans-serif;letter-spacing:0px;word-spacing:0px;fill:#000000;fill-opacity:1;stroke:none;stroke-width:0.26458332"
       id="text817">
      <path
         d="m 29.731373,33.257743 h 1.405599 l 3.420979,6.454386 v -6.454386 h 1.012858 v 7.715291 h -1.405598 l -3.42098,-6.454386 v 6.454386 h -1.012858 z"
         style="stroke-width:0.26458332"
         id="path814" />
      <path
         d="m 39.849618,35.8519 q -0.764811,0 -1.209229,0.599446 -0.444417,0.594279 -0.444417,1.632975 0,1.038697 0.43925,1.638143 0.444417,0.594279 1.214396,0.594279 0.759643,0 1.204061,-0.599446 0.444417,-0.599447 0.444417,-1.632976 0,-1.028361 -0.444417,-1.627807 Q 40.609261,35.8519 39.849618,35.8519 Z m 0,-0.806153 q 1.240234,0 1.948201,0.806153 0.707967,0.806152 0.707967,2.232421 0,1.421102 -0.707967,2.232422 -0.707967,0.806153 -1.948201,0.806153 -1.245402,0 -1.953369,-0.806153 -0.7028,-0.81132 -0.7028,-2.232422 0,-1.426269 0.7028,-2.232421 0.707967,-0.806153 1.953369,-0.806153 z"
         style="stroke-width:0.26458332"
         id="path816" />
      <path
         d="m 48.365894,40.10487 v 3.06958 H 47.40988 v -7.989176 h 0.956014 v 0.878499 q 0.299723,-0.516764 0.754476,-0.764811 0.45992,-0.253215 1.09554,-0.253215 1.054199,0 1.71049,0.837158 0.661458,0.837159 0.661458,2.201416 0,1.364258 -0.661458,2.201416 -0.656291,0.837159 -1.71049,0.837159 -0.63562,0 -1.09554,-0.248047 -0.454753,-0.253215 -0.754476,-0.769979 z m 3.234944,-2.020549 q 0,-1.049031 -0.434082,-1.64331 -0.428914,-0.599447 -1.18339,-0.599447 -0.754476,0 -1.188558,0.599447 -0.428914,0.594279 -0.428914,1.64331 0,1.049032 0.428914,1.648479 0.434082,0.594279 1.188558,0.594279 0.754476,0 1.18339,-0.594279 0.434082,-0.599447 0.434082,-1.648479 z"
         style="stroke-width:0.26458332"
         id="path818" />
      <path
         d="m 57.517789,36.074108 q -0.160197,-0.09302 -0.3514,-0.134358 -0.186035,-0.04651 -0.413411,-0.04651 -0.806152,0 -1.240234,0.527099 -0.428915,0.521932 -0.428915,1.503784 v 3.04891 h -0.956014 v -5.78776 h 0.956014 v 0.89917 q 0.299723,-0.5271 0.780314,-0.780315 0.480591,-0.258382 1.167888,-0.258382 0.09818,0 0.217041,0.0155 0.118855,0.01034 0.263549,0.03617 z"
         style="stroke-width:0.26458332"
         id="path820" />
      <path
         d="M 63.248706,37.841442 V 38.30653 H 58.87688 q 0.06201,0.981852 0.589111,1.498617 0.532268,0.511596 1.477946,0.511596 0.54777,0 1.059367,-0.134358 0.516764,-0.134359 1.023193,-0.403077 v 0.89917 q -0.511596,0.217041 -1.049031,0.330729 -0.537435,0.113689 -1.090373,0.113689 -1.384928,0 -2.196248,-0.806153 -0.806153,-0.806152 -0.806153,-2.180745 0,-1.421102 0.764812,-2.253093 0.769978,-0.837158 2.072225,-0.837158 1.167887,0 1.844848,0.754476 0.682129,0.749308 0.682129,2.041219 z M 62.29786,37.562389 Q 62.287524,36.782075 61.85861,36.316987 61.434863,35.8519 60.732064,35.8519 q -0.795817,0 -1.276408,0.449585 -0.475423,0.449585 -0.54777,1.266072 z"
         style="stroke-width:0.26458332"
         id="path822" />
      <path
         d="m 64.127204,35.185274 h 1.00769 l 1.808675,4.857584 1.808675,-4.857584 h 1.007691 l -2.170411,5.78776 h -1.29191 z"
         style="stroke-width:0.26458332"
         id="path824" />
      <path
         d="m 71.072516,35.185274 h 0.950846 v 5.78776 h -0.950846 z m 0,-2.253093 h 0.950846 v 1.204061 h -0.950846 z"
         style="stroke-width:0.26458332"
         id="path826" />
      <path
         d="m 78.958341,37.841442 v 0.465088 h -4.371826 q 0.06201,0.981852 0.589111,1.498617 0.532267,0.511596 1.477946,0.511596 0.54777,0 1.059367,-0.134358 0.516764,-0.134359 1.023193,-0.403077 v 0.89917 q -0.511597,0.217041 -1.049031,0.330729 -0.537435,0.113689 -1.090373,0.113689 -1.384928,0 -2.196248,-0.806153 -0.806153,-0.806152 -0.806153,-2.180745 0,-1.421102 0.764811,-2.253093 0.769979,-0.837158 2.072225,-0.837158 1.167888,0 1.844849,0.754476 0.682129,0.749308 0.682129,2.041219 z M 78.007494,37.562389 Q 77.997159,36.782075 77.568245,36.316987 77.144498,35.8519 76.441699,35.8519 q -0.795817,0 -1.276408,0.449585 -0.475423,0.449585 -0.54777,1.266072 z"
         style="stroke-width:0.26458332"
         id="path828" />
      <path
         d="m 79.966031,35.185274 h 0.950847 l 1.188558,4.51652 1.18339,-4.51652 h 1.121378 l 1.188558,4.51652 1.183391,-4.51652 h 0.950846 l -1.51412,5.78776 h -1.121378 l -1.245402,-4.743896 -1.25057,4.743896 h -1.121378 z"
         style="stroke-width:0.26458332"
         id="path830" />
      <path
         d="m 95.903043,36.074108 q -0.160197,-0.09302 -0.3514,-0.134358 -0.186035,-0.04651 -0.413411,-0.04651 -0.806153,0 -1.240235,0.527099 -0.428914,0.521932 -0.428914,1.503784 v 3.04891 h -0.956014 v -5.78776 h 0.956014 v 0.89917 q 0.299723,-0.5271 0.780314,-0.780315 0.480591,-0.258382 1.167888,-0.258382 0.09818,0 0.217041,0.0155 0.118855,0.01034 0.263549,0.03617 z"
         style="stroke-width:0.26458332"
         id="path832" />
      <path
         d="m 101.63396,37.841442 v 0.465088 h -4.371828 q 0.06201,0.981852 0.589111,1.498617 0.532268,0.511596 1.477946,0.511596 0.54777,0 1.059371,-0.134358 0.51676,-0.134359 1.02319,-0.403077 v 0.89917 q -0.5116,0.217041 -1.04903,0.330729 -0.537437,0.113689 -1.090375,0.113689 -1.384928,0 -2.196248,-0.806153 -0.806153,-0.806152 -0.806153,-2.180745 0,-1.421102 0.764812,-2.253093 0.769978,-0.837158 2.072225,-0.837158 1.167889,0 1.844849,0.754476 0.68213,0.749308 0.68213,2.041219 z m -0.95085,-0.279053 q -0.0103,-0.780314 -0.43925,-1.245402 -0.423745,-0.465087 -1.126544,-0.465087 -0.795817,0 -1.276408,0.449585 -0.475423,0.449585 -0.54777,1.266072 z"
         style="stroke-width:0.26458332"
         id="path834" />
      <path
         d="m 107.00314,38.011974 q 0,-1.033528 -0.42892,-1.601969 -0.42374,-0.568441 -1.19372,-0.568441 -0.76481,0 -1.19373,0.568441 -0.42374,0.568441 -0.42374,1.601969 0,1.028361 0.42374,1.596802 0.42892,0.568441 1.19373,0.568441 0.76998,0 1.19372,-0.568441 0.42892,-0.568441 0.42892,-1.596802 z m 0.95085,2.242758 q 0,1.477945 -0.65629,2.196248 -0.6563,0.72347 -2.01022,0.72347 -0.50126,0 -0.94568,-0.07751 -0.44441,-0.07235 -0.86299,-0.227376 v -0.925008 q 0.41858,0.227376 0.82682,0.335897 0.40824,0.10852 0.83199,0.10852 0.93534,0 1.40043,-0.490926 0.46509,-0.485758 0.46509,-1.472778 v -0.470256 q -0.29456,0.511597 -0.75448,0.764811 -0.45992,0.253215 -1.1007,0.253215 -1.06454,0 -1.71566,-0.81132 -0.65113,-0.81132 -0.65113,-2.14974 0,-1.343587 0.65113,-2.154907 0.65112,-0.81132 1.71566,-0.81132 0.64078,0 1.1007,0.253215 0.45992,0.253214 0.75448,0.764811 v -0.878499 h 0.95085 z"
         style="stroke-width:0.26458332"
         id="path836" />
      <path
         d="m 109.91252,35.185274 h 0.95085 v 5.78776 h -0.95085 z m 0,-2.253093 h 0.95085 v 1.204061 h -0.95085 z"
         style="stroke-width:0.26458332"
         id="path838" />
      <path
         d="m 116.53744,35.355806 v 0.89917 q -0.40307,-0.206706 -0.83715,-0.310059 -0.43409,-0.103353 -0.89917,-0.103353 -0.70797,0 -1.06454,0.217041 -0.3514,0.217041 -0.3514,0.651123 0,0.33073 0.25322,0.521932 0.25321,0.186035 1.01802,0.356568 l 0.32556,0.07235 q 1.01286,0.217041 1.43661,0.614949 0.42891,0.392741 0.42891,1.100708 0,0.806153 -0.64079,1.276408 -0.63562,0.470256 -1.75183,0.470256 -0.46508,0 -0.97151,-0.09302 -0.50126,-0.08785 -1.05937,-0.268717 v -0.981853 q 0.5271,0.273885 1.0387,0.413412 0.51159,0.134359 1.01285,0.134359 0.6718,0 1.03353,-0.227377 0.36174,-0.232544 0.36174,-0.651123 0,-0.387573 -0.26355,-0.594279 -0.25838,-0.206705 -1.14205,-0.397908 l -0.33073,-0.07751 q -0.88367,-0.186035 -1.27641,-0.568441 -0.39274,-0.387573 -0.39274,-1.059366 0,-0.816488 0.57878,-1.260905 0.57877,-0.444418 1.64331,-0.444418 0.5271,0 0.99218,0.07751 0.46509,0.07752 0.85783,0.232544 z"
         style="stroke-width:0.26458332"
         id="path840" />
      <path
         d="m 119.3073,33.541963 v 1.643311 h 1.95854 v 0.738973 h -1.95854 v 3.141927 q 0,0.707967 0.1912,0.909505 0.19637,0.201538 0.79065,0.201538 h 0.97669 v 0.795817 h -0.97669 q -1.10071,0 -1.51928,-0.408244 -0.41858,-0.413411 -0.41858,-1.498616 v -3.141927 h -0.69764 v -0.738973 h 0.69764 v -1.643311 z"
         style="stroke-width:0.26458332"
         id="path842" />
      <path
         d="m 127.47218,37.841442 v 0.465088 h -4.37183 q 0.062,0.981852 0.58911,1.498617 0.53227,0.511596 1.47795,0.511596 0.54777,0 1.05936,-0.134358 0.51677,-0.134359 1.0232,-0.403077 v 0.89917 q -0.5116,0.217041 -1.04903,0.330729 -0.53744,0.113689 -1.09038,0.113689 -1.38492,0 -2.19624,-0.806153 -0.80616,-0.806152 -0.80616,-2.180745 0,-1.421102 0.76481,-2.253093 0.76998,-0.837158 2.07223,-0.837158 1.16789,0 1.84485,0.754476 0.68213,0.749308 0.68213,2.041219 z m -0.95085,-0.279053 q -0.0103,-0.780314 -0.43925,-1.245402 -0.42375,-0.465087 -1.12655,-0.465087 -0.79581,0 -1.2764,0.449585 -0.47543,0.449585 -0.54777,1.266072 z"
         style="stroke-width:0.26458332"
         id="path844" />
      <path
         d="m 132.38661,36.074108 q -0.1602,-0.09302 -0.3514,-0.134358 -0.18604,-0.04651 -0.41342,-0.04651 -0.80615,0 -1.24023,0.527099 -0.42891,0.521932 -0.42891,1.503784 v 3.04891 h -0.95602 v -5.78776 h 0.95602 v 0.89917 q 0.29972,-0.5271 0.78031,-0.780315 0.48059,-0.258382 1.16789,-0.258382 0.0982,0 0.21704,0.0155 0.11885,0.01034 0.26355,0.03617 z"
         style="stroke-width:0.26458332"
         id="path846" />
      <path
         d="m 138.11752,37.841442 v 0.465088 h -4.37183 q 0.062,0.981852 0.58911,1.498617 0.53227,0.511596 1.47795,0.511596 0.54777,0 1.05936,-0.134358 0.51677,-0.134359 1.0232,-0.403077 v 0.89917 q -0.5116,0.217041 -1.04903,0.330729 -0.53744,0.113689 -1.09038,0.113689 -1.38492,0 -2.19624,-0.806153 -0.80616,-0.806152 -0.80616,-2.180745 0,-1.421102 0.76481,-2.253093 0.76998,-0.837158 2.07223,-0.837158 1.16789,0 1.84485,0.754476 0.68213,0.749308 0.68213,2.041219 z m -0.95085,-0.279053 q -0.0103,-0.780314 -0.43925,-1.245402 -0.42375,-0.465087 -1.12655,-0.465087 -0.79581,0 -1.2764,0.449585 -0.47543,0.449585 -0.54777,1.266072 z"
         style="stroke-width:0.26458332"
         id="path848" />
      <path
         d="m 143.4867,36.063773 v -3.131592 h 0.95084 v 8.040853 H 143.4867 V 40.10487 q -0.29973,0.516764 -0.75965,0.769979 -0.45475,0.248047 -1.09554,0.248047 -1.04903,0 -1.71049,-0.837159 -0.65629,-0.837158 -0.65629,-2.201416 0,-1.364257 0.65629,-2.201416 0.66146,-0.837158 1.71049,-0.837158 0.64079,0 1.09554,0.253215 0.45992,0.248047 0.75965,0.764811 z m -3.24011,2.020548 q 0,1.049032 0.42891,1.648479 0.43408,0.594279 1.18856,0.594279 0.75447,0 1.18856,-0.594279 0.43408,-0.599447 0.43408,-1.648479 0,-1.049031 -0.43408,-1.64331 -0.43409,-0.599447 -1.18856,-0.599447 -0.75448,0 -1.18856,0.599447 -0.42891,0.594279 -0.42891,1.64331 z"
         style="stroke-width:0.26458332"
         id="path850" />
    </g>
  </g>
</svg>
